<mxfile host="app.diagrams.net" modified="2021-07-01T00:50:51.817Z" agent="5.0 (Windows)" etag="l5g1mwVgtkusQ1AgG44L" version="14.8.0" type="github">
  <diagram id="9WBszDo1P9AFT7eKbOBq" name="Page-1">
    <mxGraphModel dx="1316" dy="865" grid="1" gridSize="10" guides="1" tooltips="1" connect="1" arrows="1" fold="1" page="1" pageScale="1" pageWidth="1700" pageHeight="1100" math="0" shadow="0">
      <root>
        <mxCell id="0" />
        <mxCell id="1" parent="0" />
        <mxCell id="AsfhlNlfSeZUBomRwfOb-1" value="&lt;div&gt;CLB&lt;/div&gt;" style="whiteSpace=wrap;html=1;aspect=fixed;align=left;verticalAlign=top;" vertex="1" parent="1">
          <mxGeometry x="470" y="280" width="420" height="420" as="geometry" />
        </mxCell>
        <mxCell id="AsfhlNlfSeZUBomRwfOb-3" value="" style="endArrow=classic;startArrow=classic;html=1;entryX=0;entryY=0;entryDx=80;entryDy=0;entryPerimeter=0;" edge="1" parent="1" target="AsfhlNlfSeZUBomRwfOb-4">
          <mxGeometry width="50" height="50" relative="1" as="geometry">
            <mxPoint x="1000" y="280" as="sourcePoint" />
            <mxPoint x="960" y="280" as="targetPoint" />
            <Array as="points" />
          </mxGeometry>
        </mxCell>
        <mxCell id="AsfhlNlfSeZUBomRwfOb-6" style="edgeStyle=orthogonalEdgeStyle;rounded=0;orthogonalLoop=1;jettySize=auto;html=1;exitX=0;exitY=0;exitDx=0;exitDy=80;exitPerimeter=0;fontSize=14;startArrow=blockThin;startFill=1;" edge="1" parent="1" source="AsfhlNlfSeZUBomRwfOb-4">
          <mxGeometry relative="1" as="geometry">
            <mxPoint x="480" y="800" as="targetPoint" />
          </mxGeometry>
        </mxCell>
        <mxCell id="AsfhlNlfSeZUBomRwfOb-4" value="&lt;div align=&quot;center&quot;&gt;switch box&lt;br&gt;&lt;/div&gt;" style="shape=card;whiteSpace=wrap;html=1;fontSize=14;align=left;verticalAlign=middle;" vertex="1" parent="1">
          <mxGeometry x="920" y="720" width="130" height="130" as="geometry" />
        </mxCell>
        <mxCell id="AsfhlNlfSeZUBomRwfOb-14" value="" style="rounded=0;whiteSpace=wrap;html=1;fontSize=14;align=left;verticalAlign=middle;" vertex="1" parent="1">
          <mxGeometry x="540" y="430" width="60" height="220" as="geometry" />
        </mxCell>
        <mxCell id="AsfhlNlfSeZUBomRwfOb-15" value="" style="rounded=0;whiteSpace=wrap;html=1;fontSize=14;align=left;verticalAlign=middle;" vertex="1" parent="1">
          <mxGeometry x="660" y="430" width="170" height="220" as="geometry" />
        </mxCell>
        <mxCell id="AsfhlNlfSeZUBomRwfOb-16" value="FF" style="rounded=0;whiteSpace=wrap;html=1;fontSize=14;align=left;verticalAlign=middle;" vertex="1" parent="1">
          <mxGeometry x="773" y="470" width="40" height="30" as="geometry" />
        </mxCell>
        <mxCell id="AsfhlNlfSeZUBomRwfOb-17" value="LUT" style="rounded=0;whiteSpace=wrap;html=1;fontSize=14;align=left;verticalAlign=middle;" vertex="1" parent="1">
          <mxGeometry x="713" y="470" width="50" height="30" as="geometry" />
        </mxCell>
        <mxCell id="AsfhlNlfSeZUBomRwfOb-18" value="LUT" style="rounded=0;whiteSpace=wrap;html=1;fontSize=14;align=left;verticalAlign=middle;" vertex="1" parent="1">
          <mxGeometry x="713" y="510" width="50" height="30" as="geometry" />
        </mxCell>
        <mxCell id="AsfhlNlfSeZUBomRwfOb-19" value="LUT" style="rounded=0;whiteSpace=wrap;html=1;fontSize=14;align=left;verticalAlign=middle;" vertex="1" parent="1">
          <mxGeometry x="713" y="550" width="50" height="30" as="geometry" />
        </mxCell>
        <mxCell id="AsfhlNlfSeZUBomRwfOb-20" value="LUT" style="rounded=0;whiteSpace=wrap;html=1;fontSize=14;align=left;verticalAlign=middle;" vertex="1" parent="1">
          <mxGeometry x="713" y="595" width="50" height="30" as="geometry" />
        </mxCell>
        <mxCell id="AsfhlNlfSeZUBomRwfOb-21" value="FF" style="rounded=0;whiteSpace=wrap;html=1;fontSize=14;align=left;verticalAlign=middle;" vertex="1" parent="1">
          <mxGeometry x="773" y="510" width="40" height="30" as="geometry" />
        </mxCell>
        <mxCell id="AsfhlNlfSeZUBomRwfOb-22" value="FF" style="rounded=0;whiteSpace=wrap;html=1;fontSize=14;align=left;verticalAlign=middle;" vertex="1" parent="1">
          <mxGeometry x="773" y="550" width="40" height="30" as="geometry" />
        </mxCell>
        <mxCell id="AsfhlNlfSeZUBomRwfOb-23" value="FF" style="rounded=0;whiteSpace=wrap;html=1;fontSize=14;align=left;verticalAlign=middle;" vertex="1" parent="1">
          <mxGeometry x="773" y="595" width="40" height="30" as="geometry" />
        </mxCell>
        <mxCell id="AsfhlNlfSeZUBomRwfOb-26" value="CBY" style="rounded=0;whiteSpace=wrap;html=1;fontSize=14;align=left;verticalAlign=middle;" vertex="1" parent="1">
          <mxGeometry x="920" y="310" width="50" height="100" as="geometry" />
        </mxCell>
        <mxCell id="AsfhlNlfSeZUBomRwfOb-27" value="CBX" style="rounded=0;whiteSpace=wrap;html=1;fontSize=14;align=left;verticalAlign=middle;" vertex="1" parent="1">
          <mxGeometry x="540" y="730" width="120" height="45" as="geometry" />
        </mxCell>
        <mxCell id="AsfhlNlfSeZUBomRwfOb-34" value="" style="endArrow=classic;html=1;fontSize=14;entryX=0;entryY=0.75;entryDx=0;entryDy=0;exitX=0.5;exitY=0;exitDx=0;exitDy=0;" edge="1" parent="1" source="AsfhlNlfSeZUBomRwfOb-27" target="AsfhlNlfSeZUBomRwfOb-14">
          <mxGeometry relative="1" as="geometry">
            <mxPoint x="130" y="760" as="sourcePoint" />
            <mxPoint x="230" y="760" as="targetPoint" />
            <Array as="points">
              <mxPoint x="600" y="690" />
              <mxPoint x="500" y="690" />
              <mxPoint x="500" y="600" />
            </Array>
          </mxGeometry>
        </mxCell>
        <mxCell id="AsfhlNlfSeZUBomRwfOb-35" value="NCX" style="edgeLabel;resizable=0;html=1;align=center;verticalAlign=middle;" connectable="0" vertex="1" parent="AsfhlNlfSeZUBomRwfOb-34">
          <mxGeometry relative="1" as="geometry">
            <mxPoint y="-50" as="offset" />
          </mxGeometry>
        </mxCell>
        <mxCell id="AsfhlNlfSeZUBomRwfOb-38" value="" style="endArrow=classic;html=1;fontSize=14;entryX=0.022;entryY=0.205;entryDx=0;entryDy=0;entryPerimeter=0;" edge="1" parent="1" target="AsfhlNlfSeZUBomRwfOb-14">
          <mxGeometry relative="1" as="geometry">
            <mxPoint x="830" y="550" as="sourcePoint" />
            <mxPoint x="720" y="650" as="targetPoint" />
            <Array as="points">
              <mxPoint x="870" y="550" />
              <mxPoint x="870" y="420" />
              <mxPoint x="510" y="420" />
              <mxPoint x="510" y="475" />
            </Array>
          </mxGeometry>
        </mxCell>
        <mxCell id="AsfhlNlfSeZUBomRwfOb-39" value="NFB" style="edgeLabel;resizable=0;html=1;align=center;verticalAlign=middle;" connectable="0" vertex="1" parent="AsfhlNlfSeZUBomRwfOb-38">
          <mxGeometry relative="1" as="geometry">
            <mxPoint x="-214" y="40" as="offset" />
          </mxGeometry>
        </mxCell>
        <mxCell id="AsfhlNlfSeZUBomRwfOb-40" value="" style="endArrow=classic;html=1;fontSize=14;exitX=0;exitY=0.5;exitDx=0;exitDy=0;entryX=0;entryY=0.5;entryDx=0;entryDy=0;" edge="1" parent="1" source="AsfhlNlfSeZUBomRwfOb-26" target="AsfhlNlfSeZUBomRwfOb-14">
          <mxGeometry relative="1" as="geometry">
            <mxPoint x="440" y="560" as="sourcePoint" />
            <mxPoint x="540" y="550" as="targetPoint" />
            <Array as="points">
              <mxPoint x="500" y="360" />
              <mxPoint x="500" y="540" />
            </Array>
          </mxGeometry>
        </mxCell>
        <mxCell id="AsfhlNlfSeZUBomRwfOb-41" value="NCY" style="edgeLabel;resizable=0;html=1;align=center;verticalAlign=middle;" connectable="0" vertex="1" parent="AsfhlNlfSeZUBomRwfOb-40">
          <mxGeometry relative="1" as="geometry">
            <mxPoint x="-95" y="140" as="offset" />
          </mxGeometry>
        </mxCell>
        <mxCell id="AsfhlNlfSeZUBomRwfOb-42" value="" style="endArrow=classic;html=1;fontSize=14;entryX=0;entryY=0;entryDx=15;entryDy=15;entryPerimeter=0;" edge="1" parent="1" target="AsfhlNlfSeZUBomRwfOb-4">
          <mxGeometry relative="1" as="geometry">
            <mxPoint x="830" y="550" as="sourcePoint" />
            <mxPoint x="440" y="840" as="targetPoint" />
            <Array as="points">
              <mxPoint x="870" y="550" />
              <mxPoint x="870" y="680" />
            </Array>
          </mxGeometry>
        </mxCell>
        <mxCell id="AsfhlNlfSeZUBomRwfOb-43" value="NOUT" style="edgeLabel;resizable=0;html=1;align=center;verticalAlign=middle;" connectable="0" vertex="1" parent="AsfhlNlfSeZUBomRwfOb-42">
          <mxGeometry relative="1" as="geometry">
            <mxPoint x="40" y="72" as="offset" />
          </mxGeometry>
        </mxCell>
        <mxCell id="AsfhlNlfSeZUBomRwfOb-44" value="" style="endArrow=classic;html=1;fontSize=14;exitX=1;exitY=0.5;exitDx=0;exitDy=0;" edge="1" parent="1" source="AsfhlNlfSeZUBomRwfOb-14" target="AsfhlNlfSeZUBomRwfOb-15">
          <mxGeometry relative="1" as="geometry">
            <mxPoint x="620" y="650" as="sourcePoint" />
            <mxPoint x="720" y="650" as="targetPoint" />
          </mxGeometry>
        </mxCell>
        <mxCell id="AsfhlNlfSeZUBomRwfOb-45" value="NIN" style="edgeLabel;resizable=0;html=1;align=center;verticalAlign=middle;" connectable="0" vertex="1" parent="AsfhlNlfSeZUBomRwfOb-44">
          <mxGeometry relative="1" as="geometry" />
        </mxCell>
        <mxCell id="AsfhlNlfSeZUBomRwfOb-46" value="" style="endArrow=classic;html=1;fontSize=14;entryX=1;entryY=0.5;entryDx=0;entryDy=0;" edge="1" parent="1" target="AsfhlNlfSeZUBomRwfOb-26">
          <mxGeometry width="50" height="50" relative="1" as="geometry">
            <mxPoint x="1000" y="360" as="sourcePoint" />
            <mxPoint x="690" y="630" as="targetPoint" />
          </mxGeometry>
        </mxCell>
        <mxCell id="AsfhlNlfSeZUBomRwfOb-47" value="" style="endArrow=classic;html=1;fontSize=14;entryX=0.5;entryY=1;entryDx=0;entryDy=0;" edge="1" parent="1" target="AsfhlNlfSeZUBomRwfOb-27">
          <mxGeometry width="50" height="50" relative="1" as="geometry">
            <mxPoint x="600" y="800" as="sourcePoint" />
            <mxPoint x="690" y="630" as="targetPoint" />
          </mxGeometry>
        </mxCell>
        <mxCell id="AsfhlNlfSeZUBomRwfOb-48" value="&lt;div align=&quot;left&quot;&gt;NOTES&lt;/div&gt;&lt;div align=&quot;left&quot;&gt;* NIN does not have to equal N * K&lt;/div&gt;&lt;div align=&quot;left&quot;&gt;* NCX does not have to equal NCY&lt;/div&gt;&lt;div align=&quot;left&quot;&gt;* NFB does not have to equal NOUT&lt;br&gt;&lt;/div&gt;" style="text;html=1;strokeColor=none;fillColor=none;align=left;verticalAlign=middle;whiteSpace=wrap;rounded=0;fontSize=14;" vertex="1" parent="1">
          <mxGeometry x="170" y="400" width="290" height="130" as="geometry" />
        </mxCell>
        <mxCell id="AsfhlNlfSeZUBomRwfOb-49" value="N=Num LUT" style="text;html=1;strokeColor=none;fillColor=none;align=center;verticalAlign=middle;whiteSpace=wrap;rounded=0;fontSize=14;" vertex="1" parent="1">
          <mxGeometry x="690" y="440" width="100" height="20" as="geometry" />
        </mxCell>
        <mxCell id="AsfhlNlfSeZUBomRwfOb-50" value="" style="endArrow=classic;html=1;fontSize=14;entryX=0;entryY=0.5;entryDx=0;entryDy=0;exitX=0;exitY=0.5;exitDx=0;exitDy=0;" edge="1" parent="1" source="AsfhlNlfSeZUBomRwfOb-15" target="AsfhlNlfSeZUBomRwfOb-17">
          <mxGeometry relative="1" as="geometry">
            <mxPoint x="620" y="620" as="sourcePoint" />
            <mxPoint x="720" y="620" as="targetPoint" />
            <Array as="points">
              <mxPoint x="690" y="540" />
              <mxPoint x="690" y="485" />
            </Array>
          </mxGeometry>
        </mxCell>
        <mxCell id="AsfhlNlfSeZUBomRwfOb-51" value="K" style="edgeLabel;resizable=0;html=1;align=center;verticalAlign=middle;" connectable="0" vertex="1" parent="AsfhlNlfSeZUBomRwfOb-50">
          <mxGeometry relative="1" as="geometry" />
        </mxCell>
        <mxCell id="AsfhlNlfSeZUBomRwfOb-53" value="" style="endArrow=classic;html=1;fontSize=14;entryX=0;entryY=0.5;entryDx=0;entryDy=0;exitX=0;exitY=0.5;exitDx=0;exitDy=0;" edge="1" parent="1" source="AsfhlNlfSeZUBomRwfOb-15" target="AsfhlNlfSeZUBomRwfOb-20">
          <mxGeometry relative="1" as="geometry">
            <mxPoint x="670" y="550" as="sourcePoint" />
            <mxPoint x="723" y="495" as="targetPoint" />
            <Array as="points">
              <mxPoint x="690" y="540" />
              <mxPoint x="690" y="610" />
            </Array>
          </mxGeometry>
        </mxCell>
        <mxCell id="AsfhlNlfSeZUBomRwfOb-54" value="K" style="edgeLabel;resizable=0;html=1;align=center;verticalAlign=middle;" connectable="0" vertex="1" parent="AsfhlNlfSeZUBomRwfOb-53">
          <mxGeometry relative="1" as="geometry" />
        </mxCell>
      </root>
    </mxGraphModel>
  </diagram>
</mxfile>
